<?xml version="1.0" encoding="UTF-8" standalone="no"?>
<!-- Created with Inkscape (http://www.inkscape.org/) -->

<svg
   xmlns:dc="http://purl.org/dc/elements/1.1/"
   xmlns:cc="http://creativecommons.org/ns#"
   xmlns:rdf="http://www.w3.org/1999/02/22-rdf-syntax-ns#"
   xmlns:svg="http://www.w3.org/2000/svg"
   xmlns="http://www.w3.org/2000/svg"
   xmlns:sodipodi="http://sodipodi.sourceforge.net/DTD/sodipodi-0.dtd"
   xmlns:inkscape="http://www.inkscape.org/namespaces/inkscape"
   width="1024"
   height="1024"
   id="svg2"
   version="1.1"
   inkscape:version="0.48.4 r9939"
   sodipodi:docname="New document 1">
  <defs
     id="defs4" />
  <sodipodi:namedview
     id="base"
     pagecolor="#ffffff"
     bordercolor="#666666"
     borderopacity="1.0"
     inkscape:pageopacity="0.0"
     inkscape:pageshadow="2"
     inkscape:zoom="0.49497475"
     inkscape:cx="-48.326399"
     inkscape:cy="348.98671"
     inkscape:document-units="px"
     inkscape:current-layer="layer1"
     showgrid="false"
     inkscape:window-width="1920"
     inkscape:window-height="1018"
     inkscape:window-x="-8"
     inkscape:window-y="-8"
     inkscape:window-maximized="1" />
  <metadata
     id="metadata7">
    <rdf:RDF>
      <cc:Work
         rdf:about="">
        <dc:format>image/svg+xml</dc:format>
        <dc:type
           rdf:resource="http://purl.org/dc/dcmitype/StillImage" />
        <dc:title></dc:title>
      </cc:Work>
    </rdf:RDF>
  </metadata>
  <g
     inkscape:label="Layer 1"
     inkscape:groupmode="layer"
     id="layer1"
     transform="translate(0,-28.362183)">
    <path
       style="fill:#000000"
       d="m 0,987.53217 0,-64.63054 8.01313,1.60263 c 10.45511,2.09101 11.50259,3.41676 5.92313,7.49657 -3.32467,2.43106 -3.77039,3.89218 -1.59703,5.23541 1.65812,1.02476 4.70076,0.46393 6.76145,-1.24628 3.04748,-2.52918 4.82231,-2.09902 9.51021,2.30504 4.96299,4.6625 8.71848,5.40914 27.03935,5.3759 23.17148,-0.0421 24.33748,-0.44575 30.85039,-10.6806 4.32663,-6.79914 4.90426,-6.93596 29.28305,-6.93596 23.59135,0 24.94484,-0.28859 26.33783,-5.61546 1.45267,-5.55497 -14.1943,-58.06261 -19.18327,-64.37469 -1.37052,-1.73399 -4.33909,-3.15765 -6.59683,-3.16368 -4.41493,-0.0126 -35.63205,-27.84781 -35.63205,-31.77278 0,-1.30083 10.72211,-13.04268 23.82692,-26.09298 l 23.82691,-23.72785 19.05755,18.10278 c 10.48162,9.95654 20.58066,18.10279 22.44227,18.10279 1.86161,0 5.38115,-2.20602 7.82122,-4.90227 4.28027,-4.72964 4.04984,-5.35118 -6.54505,-17.65393 -11.4856,-13.33697 -14.26225,-14.55039 -22.81787,-9.97157 -6.45247,3.45325 -8.39713,0.79955 -12.12916,-16.5515 -1.47965,-6.87931 -4.46502,-14.46886 -6.63411,-16.8657 -2.16911,-2.39682 -3.21576,-5.53588 -2.32591,-6.97566 2.53026,-4.09409 24.63933,-0.2106 30.84716,5.4185 6.67353,6.05125 9.80927,4.42077 14.81799,-7.70482 2.10959,-5.10711 7.87093,-12.70789 12.803,-16.89061 6.56626,-5.56864 9.49924,-10.51337 10.95365,-18.46695 1.78721,-9.77348 1.32182,-11.49125 -4.64417,-17.14138 -7.85078,-7.43513 -19.74121,-6.82292 -31.1382,1.60324 -3.86063,2.85428 -7.01934,4.2557 -7.01934,3.11424 0,-3.20661 -26.83738,-11.574 -31.44777,-9.80482 -2.2497,0.86328 -5.67117,5.35307 -7.60333,9.97734 -2.63418,6.30451 -6.02889,9.23804 -13.5705,11.72702 -17.92239,5.91491 -24.38396,-2.2188 -10.27662,-12.93605 4.24738,-3.22668 11.86483,-9.42819 16.9277,-13.78112 8.43007,-7.24795 8.95615,-8.46114 6.24721,-14.40657 -2.18874,-4.80377 -2.23878,-8.55529 -0.19244,-14.42539 2.193,-6.29079 2.0422,-8.39137 -0.7283,-10.14594 -1.92162,-1.217 -28.17957,-2.23011 -58.351,-2.25134 L 3e-5,628.43859 l 0,-247.17241 0,-247.17242 412.72685,0 c 390.14423,0 412.90606,0.24137 416.00169,4.41379 3.11077,4.19268 3.44516,4.1841 6.67494,-0.17125 2.5935,-3.49744 6.07089,-4.39493 14.65839,-3.78325 12.18006,0.86755 13.18146,3.42929 6.63096,16.96334 -4.62528,9.55649 -10.60212,12.1571 -16.23149,7.06257 -2.61804,-2.36927 -5.33978,-4.30776 -6.04836,-4.30776 -2.01345,0 -24.00138,28.96218 -28.06171,36.96247 -2.53428,4.99341 -4.13058,20.59783 -5.24926,51.31339 -0.88415,24.27587 -2.32148,55.81381 -3.19405,70.0843 -1.92144,31.42314 -2.90887,32.41914 -27.11038,27.34608 -9.05357,-1.89778 -19.06166,-2.96335 -22.24017,-2.36789 -3.17851,0.59544 -26.86438,-0.63284 -52.63526,-2.72949 -25.77088,-2.09668 -49.24313,-3.18792 -52.16057,-2.42499 -9.30054,2.43216 -14.09733,19.45043 -34.72944,123.21515 -4.96483,24.96946 -9.90258,47.04062 -10.97281,49.04703 -1.08121,2.02696 -5.72888,3.70809 -10.45916,3.78325 -7.86575,0.12485 -8.6734,0.90261 -10.61852,10.2239 -1.15788,5.54877 -5.62428,14.47006 -9.92536,19.82507 -7.54156,9.3896 -7.76712,10.37779 -6.33289,27.74385 1.05467,12.77031 2.68488,18.74096 5.60529,20.52961 10.05755,6.15986 10.90159,7.96303 11.6959,24.98618 l 0.81282,17.41965 -39.25285,0.42592 c -21.58904,0.23431 -40.48096,1.18494 -41.982,2.11264 -1.50107,0.9277 -3.37999,-0.0101 -4.1754,-2.08202 -1.93042,-5.03062 -33.24038,-5.11002 -55.04409,-0.13973 -8.75603,1.99604 -37.48458,4.86334 -63.8412,6.37178 -63.91231,3.65782 -74.15183,4.97933 -76.74802,9.90528 -3.04247,5.77266 -8.815,50.48479 -6.7805,52.51929 0.9325,0.93247 6.48818,1.42874 12.34596,1.10275 19.48508,-1.08431 101.14053,-10.66128 122.5868,-14.37762 11.62603,-2.01463 29.21815,-3.79725 39.0936,-3.96137 27.49364,-0.45694 32.81393,-2.17242 34.33933,-11.07246 1.10058,-6.42134 2.56757,-7.66722 9.84743,-8.36321 7.51089,-0.71806 10.35491,0.96415 23.319,13.79298 8.12067,8.03593 14.76484,15.56319 14.76484,16.72722 0,2.55303 -45.86846,47.16274 -48.53036,47.19855 -1.02864,0.0126 -3.29859,2.34226 -5.04433,5.17428 -6.53557,10.60223 -23.55838,17.62576 -55.504,22.90067 -30.16659,4.98118 -37.20702,7.4918 -37.20702,13.26812 0,6.33389 8.85185,8.08748 30.26601,5.99585 11.79113,-1.15173 29.34136,-2.72379 39.0005,-3.49351 13.61716,-1.08511 19.20164,-2.77905 24.86103,-7.5411 l 7.29895,-6.14166 19.27691,18.18241 c 10.60228,10.00032 20.1985,19.70148 21.3249,21.55815 1.40045,2.30841 -2.80816,8.43292 -13.31084,19.37037 -14.95272,15.57171 -15.76648,16.03158 -30.77607,17.39262 -8.55895,0.77609 -16.44302,2.89257 -17.72312,4.75779 -2.24617,3.27279 -0.57405,56.8742 2.05214,65.78345 1.02912,3.49128 4.29658,4.46633 15.63355,4.6652 16.93277,0.29701 26.19036,2.53405 27.56605,6.6611 0.5482,1.64458 -2.2051,3.69966 -6.11842,4.56686 -3.91332,0.8672 -13.92499,3.69223 -22.24814,6.27785 -15.42497,4.79182 -42.23576,10.17117 -43.66851,8.76173 -0.4354,-0.42834 6.6582,-3.25793 15.76355,-6.28799 15.75432,-5.2427 19.37552,-8.10153 14.26377,-11.26077 -3.035,-1.87573 -58.60683,10.13695 -74.63467,16.13342 -12.5214,4.6846 -12.22994,6.57772 1.26108,8.19142 4.92574,0.58921 6.13275,1.99595 5.51633,6.42911 -1.03181,7.42062 2.56079,7.35573 39.57899,-0.71501 16.11975,-3.51444 34.9835,-7.61372 41.91946,-9.10949 6.93596,-1.49579 13.98791,-4.4552 15.67101,-6.57647 5.57005,-7.02015 36.03342,-0.0499 36.03342,8.24461 0,2.00555 -3.12118,4.33036 -6.93596,5.16626 -18.84304,4.12886 -17.49532,5.66688 6.33876,7.23372 16.71458,1.09881 18.69126,1.8623 27.87182,10.76509 8.27864,8.02819 11.87936,9.70702 22.19992,10.35057 15.46797,0.96451 18.62797,3.87892 8.67562,8.00133 -10.77038,4.46123 -9.60096,9.43676 3.0124,12.81646 5.89557,1.5797 13.73177,4.4627 17.41378,6.4067 10.26467,5.4194 18.48166,4.2566 27.15126,-3.842 8.78347,-8.205 8.57312,-8.4159 -11.50182,-11.53077 -6.1392,-0.9526 -12.76123,-4.08695 -16.06552,-7.60421 l -5.62133,-5.98361 8.17447,-4.9712 8.17444,-4.97116 -14.80845,-1.79203 c -8.14466,-0.98561 -16.22717,-2.92591 -17.96116,-4.31179 -4.47163,-3.57389 -3.90452,-9.61738 1.26108,-13.43917 3.95279,-2.92448 2.96494,-3.9164 -9.45813,-9.49692 -11.36629,-5.10583 -12.96078,-6.53522 -8.82758,-7.91368 9.34354,-3.11614 12.43068,-5.51757 16.57281,-12.89171 3.81215,-6.78672 5.177,-7.32248 18.01872,-7.07321 15.90781,0.30879 27.20157,2.66661 27.20157,5.67893 0,1.13811 -3.0101,3.44077 -6.68911,5.11703 -9.7563,4.44527 -4.76508,7.50075 16.64398,10.18897 19.44263,2.44131 25.87625,6.66675 18.52093,12.16409 -2.32004,1.73399 -5.70378,3.15271 -7.51944,3.15271 -5.44798,0 -3.72319,4.34292 2.37369,5.97681 3.12118,0.83645 11.4117,1.53632 18.42338,1.55526 10.97528,0.0298 14.06047,1.23614 22.18082,8.67409 8.58768,7.86601 9.02706,8.88194 4.90667,11.34532 -3.48162,2.08147 -2.03798,2.339 6.25793,1.11636 8.38447,-1.23571 11.89152,-0.58663 15.76355,2.91752 2.739,2.47873 4.97997,6.05769 4.97997,7.95322 0,1.89551 2.84525,4.74279 6.32277,6.32726 5.95937,2.71529 6.08107,3.14799 2.11728,7.52789 -2.31303,2.5559 -3.45196,5.4006 -2.53094,6.3216 2.54393,2.544 20.18924,2.8212 23.40667,0.3678 4.65057,-3.5462 11.0389,0.55 11.0389,7.0782 0,4.0481 2.11393,7.0528 6.30541,8.9626 6.68433,3.0456 7.92864,5.8067 3.774,8.3744 -1.39229,0.8605 -1.81099,4.4349 -0.93048,7.9432 1.50183,5.9838 1.26817,6.1709 -3.77399,3.022 -2.95624,-1.8462 -5.37497,-4.2187 -5.37497,-5.2722 0,-1.0535 -1.70246,-1.9155 -3.78325,-1.9155 -5.99623,0 -4.39167,7.0928 1.89163,8.3618 8.52522,1.7217 -93.8259,0.1632 -104.03941,-1.5842 -7.43281,-1.2717 -7.63206,-1.2012 -1.26109,0.446 4.16158,1.076 -28.92144,2.2057 -73.51785,2.5105 l -81.08433,0.5541 -3.40828,-7.8961 c -2.0164,-4.6716 -7.27073,-9.8832 -12.86638,-12.7619 -5.20198,-2.6761 -9.45813,-6.0159 -9.45813,-7.4217 0,-1.4057 4.02023,-4.9279 8.93382,-7.827 12.60854,-7.4392 9.84346,-10.9032 -8.96775,-11.2345 -13.73489,-0.2418 -16.26349,-1.0191 -17.92476,-5.50997 -1.06375,-2.87563 -4.19348,-6.43758 -6.9549,-7.91547 -6.13704,-3.28445 -54.9338,-3.60004 -56.93118,-0.36822 -2.70873,4.3828 6.51088,10.29206 16.05766,10.29206 6.28315,0 11.05383,1.6975 14.03803,4.995 2.48623,2.7472 8.49247,5.7401 13.34721,6.6509 8.39017,1.574 25.45677,10.7033 25.68427,13.7391 0.0588,0.7835 -3.84149,3.3073 -8.66715,5.6085 -10.08408,4.8088 -9.77948,11.1312 0.59583,12.3669 3.59038,0.4276 7.0024,2.2219 7.58227,3.9873 0.83935,2.5556 -15.20262,3.1721 -78.69284,3.0245 -49.62584,-0.1152 -79.18824,-1.0896 -78.26755,-2.5793 0.81376,-1.3167 2.97606,-2.3939 4.80511,-2.3939 1.82908,0 4.78576,-1.7594 6.57045,-3.9099 2.6595,-3.2045 2.60146,-4.5204 -0.3217,-7.2945 -2.98958,-2.8371 -5.76195,-2.6528 -17.13634,1.1396 -15.74776,5.2504 -20.67191,10.4833 -12.20686,12.9721 3.07959,0.9055 -30.71995,1.6639 -75.1101,1.6855 -53.46793,0.026 -78.64963,-0.7684 -74.60692,-2.3536 4.50787,-1.7677 5.36354,-3.1319 3.2747,-5.2207 -2.08883,-2.0888 -6.71671,-1.4097 -17.71114,2.599 -13.8128,5.0365 -19.62723,5.4268 -80.83135,5.4268 l -65.94795,0 0,-64.63054 z m 673.41869,57.27033 c 0,-1.2737 0.68525,-4.1016 1.52276,-6.2842 0.95954,-2.5005 -0.20656,-4.6185 -3.15271,-5.7263 -2.5715,-0.967 -7.67394,-4.9376 -11.33875,-8.8237 l -6.66332,-7.0656 -11.6224,6.4959 c -13.40938,7.4946 -14.34773,10.2468 -4.68646,13.7456 3.81478,1.3815 9.20591,3.5648 11.98029,4.8519 10.17195,4.7188 23.96059,6.3338 23.96059,2.8064 z m -130.52216,-4.3988 c -1.73399,-0.6997 -4.57143,-0.6997 -6.30542,0 -1.73399,0.6996 -0.31527,1.2721 3.15271,1.2721 3.46798,0 4.8867,-0.5725 3.15271,-1.2721 z m 17.02463,-0.8518 c 0,-1.3872 -1.70247,-2.5222 -3.78325,-2.5222 -2.08079,0 -3.78326,1.135 -3.78326,2.5222 0,1.3872 1.70247,2.5221 3.78326,2.5221 2.08078,0 3.78325,-1.1349 3.78325,-2.5221 z m -401.63921,-24.5912 c 1.52283,-4.6389 -10.71629,-3.9507 -14.68015,0.8255 -2.91056,3.507 -2.29802,3.8804 5.17181,3.1527 4.66036,-0.454 8.93911,-2.2442 9.50834,-3.9782 z m 164.05363,-6.5998 c -0.87156,-6.0466 -7.97547,-6.3757 -19.40205,-0.8991 -7.86392,3.769 -7.78094,7.5884 0.20833,9.5847 9.53457,2.3824 20.09998,-2.3986 19.19379,-8.6856 z m 384.3442,-26.01963 c -1.8207,-0.72858 -3.99607,-0.63899 -4.83417,0.199 -0.83809,0.83809 0.65158,1.43421 3.31035,1.32469 2.9382,-0.12106 3.53583,-0.71866 1.52382,-1.52379 z M 322.83744,961.21582 c 0,-5.4669 -1.13498,-9.93981 -2.52217,-9.93981 -1.38719,0 -2.52217,-1.70246 -2.52217,-3.78325 0,-2.08079 1.04696,-3.78325 2.32658,-3.78325 1.27959,0 3.45045,-3.68867 4.82412,-8.19704 3.31335,-10.87453 5.55059,-55.67418 2.98741,-59.82148 -3.68756,-5.96662 -19.77026,-0.60469 -32.00073,10.66895 -12.30884,11.34592 -12.39588,11.99502 -4.38815,32.72565 4.02175,10.41163 4.212,13.45437 1.47991,23.66936 -3.55676,13.2983 -2.42178,16.00971 4.81083,11.49286 6.34305,-3.96132 9.87136,-1.86621 9.87136,5.86161 0,6.08579 9.13696,14.75201 13.02188,12.35098 1.16113,-0.7176 2.11113,-5.77768 2.11113,-11.24458 z M 146.28571,933.62084 c 0,-1.38719 -1.20196,-2.52217 -2.67102,-2.52217 -1.46906,0 -1.96956,1.13498 -1.11223,2.52217 0.85734,1.38719 2.0593,2.52217 2.67103,2.52217 0.61173,0 1.11222,-1.13498 1.11222,-2.52217 z M 336.70936,802.46813 c 0.85733,-1.38719 0.4238,-2.52217 -0.96339,-2.52217 -1.38719,0 -3.22361,1.13498 -4.08095,2.52217 -0.85733,1.38719 -0.4238,2.52217 0.9634,2.52217 1.38719,0 3.2236,-1.13498 4.08094,-2.52217 z m 61.33145,-15.7779 c 0.99096,-8.61514 -4.73848,-11.38897 -14.20165,-6.87555 -3.72632,1.77724 -9.5124,3.34517 -12.85796,3.48427 -3.34555,0.13923 -6.51471,1.53181 -7.04255,3.09488 -1.44255,4.27169 6.92482,6.51627 11.16698,2.99558 2.98985,-2.48134 4.18896,-2.21707 6.19361,1.36504 1.62294,2.90002 4.82163,4.17202 9.21401,3.66411 5.23029,-0.60482 6.90607,-2.32529 7.52756,-7.72833 z M 202.56175,657.76596 c 3.17241,-8.26716 4.58641,-26.30331 2.1788,-27.79129 -3.90409,-2.41285 -10.05212,5.09905 -13.44696,16.42998 -2.53727,8.46869 -2.44289,10.55737 0.56305,12.45956 5.19735,3.28896 9.17829,2.88054 10.70511,-1.09825 z m 193.41852,-59.62694 c 33.98621,-2.76785 67.65288,-6.32103 74.8148,-7.89597 l 13.02173,-2.86355 0.94692,-12.88918 C 485.80827,560.272 483.55,543.472 480.14391,540.12221 c -1.21467,-1.1946 -13.44617,-1.14424 -27.41487,0.11299 -13.87192,1.2484 -38.38108,2.3103 -54.4648,2.35981 -53.2089,0.16369 -82.93996,2.84408 -85.54533,7.71226 -1.27125,2.37533 -3.70255,14.76785 -5.40289,27.53889 -3.5788,26.87985 -3.16118,27.60767 15.04695,26.22396 6.50333,-0.49432 39.63112,-3.16327 73.6173,-5.9311 z M 279.96059,542.83374 c 0,-5.84639 -4.52764,-9.24092 -7.86893,-5.89963 -3.16613,3.16613 -0.088,10.7951 4.35553,10.7951 1.93236,0 3.5134,-2.20296 3.5134,-4.89547 z m 129.72274,-26.26083 c 4.94804,-6.03845 8.99645,-12.25917 8.99645,-13.82388 0,-3.96338 -9.44829,-5.91917 -24.10506,-4.98973 -9.47437,0.60081 -12.62106,1.84124 -13.26441,5.22886 -0.84926,4.47188 13.24824,24.56371 17.23521,24.56371 1.17775,0 6.18977,-4.94054 11.13781,-10.97896 z m -40.3177,-21.91953 c 9.6378,-1.39292 19.37446,-4.20786 21.63699,-6.25545 2.26256,-2.0476 7.78767,-3.7229 12.27801,-3.7229 12.8368,0 17.92132,-3.94878 17.92132,-13.91818 0,-7.91042 1.14791,-9.27804 12.70176,-15.13283 20.30657,-10.29011 22.588,-16.15438 22.59915,-58.08988 0.0101,-38.99581 0.87607,-41.48965 14.40238,-41.48965 15.76998,0 60.02151,-7.7627 68.83858,-12.07584 11.7621,-5.75377 13.3952,-15.90736 3.59169,-22.33086 -5.55671,-3.64091 -12.73644,-4.49764 -39.22906,-4.68102 -17.83513,-0.12334 -33.37524,-1.31025 -34.53359,-2.63733 -1.15834,-1.32709 -5.84445,-11.17543 -10.41358,-21.8852 -12.894,-30.22276 -36.21008,-49.97655 -67.75273,-57.40131 -24.1095,-5.6751 -69.16066,-2.84213 -81.17995,5.10487 -3.31292,2.19048 -3.25493,2.81343 0.46653,5.01099 3.10478,1.83344 3.89715,4.70901 2.94097,10.67308 -0.97694,6.09353 0.3437,10.59013 5.20835,17.73364 3.58443,5.26356 6.51716,10.38777 6.51716,11.38711 0,0.99933 2.15756,5.84252 4.79461,10.76267 2.63703,4.92011 5.98992,13.27479 7.45089,18.56595 2.54012,9.19956 2.27532,9.95752 -6.0557,17.33324 -4.79159,4.24214 -8.71197,9.20662 -8.71197,11.03217 0,5.98406 30.0775,5.18941 40.69964,-1.07528 6.1929,-3.65245 7.1739,-3.54947 14.26126,1.49718 4.18599,2.9807 8.82527,5.41944 10.30949,5.41944 2.30761,0 10.39461,12.52064 10.39461,16.09342 0,0.666 -2.5537,1.5736 -5.67488,2.01687 -3.58075,0.50855 -5.96341,2.8325 -6.4568,6.29768 -1.93622,13.59801 -17.72695,13.97525 -23.28528,0.55629 -2.52017,-6.08428 -2.59319,-8.96757 -0.31925,-12.6087 3.8921,-6.23227 3.79674,-6.67955 -2.09628,-9.8334 -6.5229,-3.49095 -15.133,0.81408 -15.133,7.56651 0,2.67677 -2.13787,6.011 -4.75083,7.40942 -2.61294,1.39841 -5.49434,6.5059 -6.40311,11.35 -2.07529,11.06225 -3.87609,12.14376 -12.64526,7.59425 -3.87387,-2.00979 -7.49457,-3.65417 -8.04599,-3.65417 -0.55145,0 -0.23457,4.80254 0.70396,10.6723 l 1.70657,10.6723 -6.09055,-4.0335 c -3.34982,-2.21842 -8.26444,-8.52667 -10.92142,-14.01828 -5.40306,-11.16745 -16.53666,-19.09563 -21.97673,-15.64952 -1.90214,1.20494 -6.01211,2.20818 -9.13329,2.22942 -4.58992,0.0313 -5.67488,1.45678 -5.67488,7.45626 0,4.0797 1.13497,8.11911 2.52217,8.97644 3.33735,2.0626 3.19672,12.29632 -0.33079,24.07003 -3.50942,11.71345 -1.64566,19.85417 6.85967,29.96219 7.40821,8.80415 13.64846,10.11871 13.64846,2.87512 0,-4.22955 1.27031,-4.68538 9.45812,-3.39383 7.30095,1.15165 31.04839,12.02638 38.19193,17.48931 0.54448,0.41639 -0.48565,2.53504 -2.28917,4.70816 -1.94356,2.34183 -2.34676,4.82839 -0.98996,6.10508 4.4485,4.18582 27.66579,12.4134 39.49115,13.99458 6.58916,0.88104 11.98029,2.49873 11.98029,3.59489 0,1.09616 -9.64964,2.674 -21.44364,3.50632 -24.23433,1.71023 -38.1721,6.6304 -18.91104,6.67577 6.24237,0.0151 19.23524,-1.1129 28.87302,-2.50582 z M 269.09976,422.53013 c -0.88707,-0.88707 -0.99782,-2.60804 -0.24616,-3.82438 1.61214,-2.60848 6.06258,-0.35929 6.06258,3.06395 0,2.71156 -3.41844,3.15849 -5.8165,0.76043 z m 56.82105,-9.87988 c -5.7604,-4.03474 -7.34089,-9.83653 -3.3513,-12.30223 1.23982,-0.76626 6.62725,0.43397 11.97207,2.66717 6.81056,2.84566 14.05899,3.66675 24.22852,2.7446 10.59866,-0.96105 14.51069,-0.46945 14.51069,1.82345 0,8.70942 -36.5732,12.62236 -47.35998,5.06701 z m 146.63658,75.80803 c -0.7985,-2.08079 -4.16778,-3.78325 -7.48736,-3.78325 -10.60756,0 -6.31662,6.86572 4.60449,7.36738 2.85371,0.13115 3.83864,-1.09341 2.88287,-3.58413 z M 592.1079,359.2432 c 0.0295,-17.35246 -2.40552,-25.89822 -7.37969,-25.89822 -2.67665,0 -1.21611,30.20202 1.98379,41.02184 2.66921,9.02543 5.36762,1.46233 5.3959,-15.12362 z m 61.13345,-44.31004 c 0,-5.73685 -4.16498,-11.85419 -8.07093,-11.85419 -3.14535,0 -2.36948,11.25023 1.00887,14.62857 4.60666,4.60667 7.06206,3.64204 7.06206,-2.77438 z M 489.30047,1049.7197 c 0,-1.3436 1.70246,-1.7897 3.78325,-0.9912 2.08079,0.7985 3.78325,1.8978 3.78325,2.443 0,0.5451 -1.70246,0.9912 -3.78325,0.9912 -2.08079,0 -3.78325,-1.0993 -3.78325,-2.443 z m 315.27093,-0.079 c 0,-1.3872 0.5005,-2.5222 1.11223,-2.5222 0.61173,0 1.81369,1.135 2.67102,2.5222 0.85734,1.3872 0.35684,2.5222 -1.11222,2.5222 -1.46906,0 -2.67103,-1.135 -2.67103,-2.5222 z m 7.56651,-0.2361 c 0,-1.2574 2.26995,-2.2861 5.04433,-2.2861 2.77439,0 5.04434,0.4352 5.04434,0.967 0,0.5318 -2.26995,1.5605 -5.04434,2.286 -2.77438,0.7255 -5.04433,0.2904 -5.04433,-0.9669 z m 48.84855,-0.3038 c -0.8157,-1.3198 -6.56,-4.5759 -12.76504,-7.2357 -6.50558,-2.7886 -10.84668,-6.1706 -10.25387,-7.9883 0.56542,-1.7338 7.4698,-4.1873 15.34305,-5.4522 7.87326,-1.2649 14.31476,-2.9674 14.31436,-3.7832 -3e-4,-0.8159 -10.2438,-1.6904 -22.76327,-1.9434 -20.23109,-0.4089 -23.59563,-1.1609 -30.25181,-6.7617 -4.119,-3.4659 -9.76517,-7.0241 -12.54702,-7.907 -8.97852,-2.8497 -6.013,-8.828 4.40017,-8.87052 5.20197,-0.0202 11.16059,-1.24789 13.24138,-2.72591 2.80924,-1.99541 1.01025,-2.30034 -6.98762,-1.18438 -7.2648,1.01366 -13.17623,0.25897 -18.16046,-2.31845 -4.06427,-2.10173 -9.43217,-3.86212 -11.92864,-3.91201 -5.43706,-0.10871 -17.01303,-9.52578 -19.17344,-15.59769 -0.84904,-2.38625 -4.71348,-5.00754 -8.58766,-5.8251 -10.75005,-2.26856 -13.75163,-4.48441 -18.78318,-13.86625 -2.54762,-4.75032 -8.73301,-10.74085 -13.74531,-13.31232 l -9.11327,-4.6754 5.58503,-3.9119 c 3.07178,-2.15156 7.18284,-7.73599 9.1357,-12.40987 2.10508,-5.03813 5.33393,-8.49202 7.93063,-8.48336 6.97891,0.0227 33.94138,4.74553 35.39499,6.19913 0.72701,0.72702 -0.63675,3.48606 -3.03062,6.13124 -5.55479,6.13797 -3.63555,7.19022 18.95941,10.39476 22.23622,3.15367 26.12187,5.95128 17.40911,12.53429 -3.44724,2.60462 -5.71533,5.28808 -5.04017,5.96323 0.67519,0.67516 10.86787,2.54752 22.65045,4.16077 11.78256,1.61326 22.8467,4.11489 24.58695,5.55916 4.88365,4.05308 3.75639,8.83163 -2.46726,10.45915 -9.98294,2.6106 -1.25992,6.90641 19.71551,9.70924 12.9235,1.7269 22.2526,4.48984 26.9925,7.99416 l 7.2432,5.35517 -7.7658,3.1688 c -4.2712,1.74286 -7.7659,4.21036 -7.7659,5.48336 0,3.4229 14.426,6.1444 30.7149,5.7944 10.6666,-0.2293 15.9003,0.9348 20.511,4.5616 3.4047,2.6781 9.1614,5.9989 12.7926,7.3794 5.1969,1.9759 6.6023,4.2048 6.6023,10.4712 0,7.8357 0.1594,7.9397 10.1172,6.6041 6.9448,-0.9315 12.4027,-3.8037 17.406,-9.1597 5.3896,-5.7697 9.5281,-7.8027 15.8835,-7.8027 4.72704,0 10.79784,-1.6214 13.49054,-3.6031 4.6365,-3.4123 4.6559,-3.6961 0.3658,-5.3588 -2.4915,-0.9656 -12.20884,-0.999 -21.59414,-0.074 -14.7556,1.454 -17.9231,1.0059 -23.4129,-3.3124 -3.4918,-2.7467 -9.6641,-5.7373 -13.7162,-6.6458 -15.1784,-3.40323 -16.195,-4.04232 -16.195,-10.18064 0,-4.99384 -1.2906,-6.1492 -6.936,-6.20938 -6.0193,-0.0641 -23.33,-12.19357 -23.33,-16.34702 0,-0.7475 3.1212,-2.70818 6.9359,-4.3571 6.2836,-2.71604 4.9712,-3.12534 -13.9528,-4.35137 -19.9892,-1.29505 -21.1705,-1.71378 -27.4309,-9.72265 -3.6158,-4.62563 -12.6052,-11.05067 -20.09647,-14.36367 -7.45488,-3.2969 -13.55431,-6.5739 -13.55431,-7.28223 0,-2.1911 12.76335,-20.2247 15.51986,-21.9283 2.55732,-1.58052 20.50072,-0.61301 31.85542,1.71765 4.5068,0.92505 5.6039,2.64139 5.0443,7.89178 -0.6213,5.82959 0.4426,6.96126 8.1125,8.62846 4.8551,1.05535 13.0031,1.27761 18.1066,0.49389 7.6914,-1.18115 10.3886,-0.31547 15.7636,5.05952 3.5664,3.56647 6.4844,8.07076 6.4844,10.00955 0,2.36317 5.1958,4.38852 15.7636,6.14478 16.3254,2.71312 37.202,13.91652 37.202,19.96435 0,3.93213 10.90924,7.09808 16.74384,4.85915 2.2794,-0.87466 6.8218,0.1642 10.0943,2.30832 5.7257,3.75162 5.95,5.08506 5.95,35.36751 0,28.9178 -1.6868,36.4198 -6.4544,28.7057 -0.9595,-1.5525 -5.7217,-2.2679 -10.8681,-1.6326 -5.0381,0.622 -11.80924,0.1549 -15.04684,-1.0379 -3.2375,-1.1928 -7.0001,-1.4805 -8.3613,-0.6393 -3.028,1.8714 4.8276,11.1174 9.4456,11.1174 1.7839,0 3.9627,1.1636 4.8416,2.5858 1.0789,1.7457 -20.6076,2.4575 -66.7445,2.1909 -40.0553,-0.2315 -68.9564,-1.3881 -69.8256,-2.7945 z m 92.3929,-59.99208 c 0,-1.38719 -2.27,-2.52216 -5.0444,-2.52216 -2.7744,0 -5.0443,1.13497 -5.0443,2.52216 0,1.3872 2.2699,2.52217 5.0443,2.52217 2.7744,0 5.0444,-1.13497 5.0444,-2.52217 z m 53.59604,-35.38893 c -3.1212,-1.25458 -5.6749,-3.47691 -5.6749,-4.93853 0,-1.46165 -3.12114,-4.03867 -6.93594,-5.72676 -3.8148,-1.68806 -8.4358,-4.50116 -10.2689,-6.25134 -1.833,-1.75016 -7.7625,-3.18212 -13.1766,-3.18212 -8.3497,0 -10.4277,-1.12938 -13.6917,-7.44125 -2.1164,-4.0927 -3.848,-9.14866 -3.848,-11.23548 0,-2.41931 -3.4273,-4.3724 -9.4582,-5.38982 -13.8425,-2.33525 -18.2857,-3.78095 -18.2857,-5.94977 0,-1.06289 4.4688,-6.77307 9.9306,-12.68927 9.3699,-10.14943 10.4999,-10.66055 20.0145,-9.05307 6.5695,1.10993 11.4425,3.77717 13.9822,7.65319 2.8337,4.32478 7.183,6.39599 15.9264,7.58433 18.37184,2.49702 20.62024,3.52816 24.63894,11.29946 2.0504,3.96495 6.0103,7.93343 8.7999,8.81881 4.4286,1.40558 5.072,3.79362 5.072,18.82516 0,13.37147 -0.8907,17.55719 -3.9895,18.74629 -4.8963,1.87886 -5.9051,1.79608 -13.0351,-1.06983 z m -564.91304,-3.9674 c 0.83809,-0.83809 3.01346,-0.92767 4.83417,-0.19899 2.01201,0.80512 1.41438,1.40277 -1.52382,1.52379 -2.65877,0.10946 -4.14844,-0.4866 -3.31035,-1.32469 z m 547.7333,-67.81495 c -6.3337,-8.30388 -7.9098,-9.07975 -15.5373,-7.6488 -11.7477,2.20387 -17.7423,-0.2617 -22.3634,-9.19797 -3.3985,-6.57183 -5.0708,-7.48276 -11.9527,-6.511 -4.4008,0.62141 -9.9108,1.96225 -12.2446,2.97964 -8.4169,3.66932 -22.6555,-37.76343 -14.673,-42.69689 1.3872,-0.85734 2.5221,-4.26226 2.5221,-7.5665 0,-3.30424 -1.1349,-6.70917 -2.5221,-7.56651 -1.3872,-0.85733 -2.5222,-5.49983 -2.5222,-10.31667 0,-11.21691 4.8305,-13.12165 18.1008,-7.13753 10.0547,4.53402 10.3465,4.52731 14.3669,-0.33038 7.613,-9.19842 18.6153,-16.26468 25.3245,-16.26468 3.6677,0 14.5807,3.37423 24.251,7.49828 19.02784,8.11467 27.78634,9.43271 29.78404,4.48202 0.6996,-1.73399 1.3617,4.84887 1.4712,14.62857 0.1095,9.7797 -1.0347,19.01515 -2.5428,20.5232 -1.9745,1.97448 -1.9745,3.21627 0,4.43655 1.7459,1.07903 2.7419,13.55102 2.7419,34.33394 l 0,32.63932 -8.197,0.0343 c -4.5084,0.0202 -10.6184,0.68421 -13.5779,1.47837 -4.11944,1.10541 -7.03314,-0.72245 -12.42944,-7.79739 z m 26.05444,-29.07454 c 0.4011,-2.10762 -0.8294,-5.96366 -2.7345,-8.56896 -4.5642,-6.24194 -16.85944,-3.69228 -16.85944,3.49613 0,9.11635 17.94064,13.76114 19.59394,5.07283 z m -38.30394,-12.56206 c 2.2861,0 0.8934,-9.89075 -1.6107,-11.43835 -4.1873,-2.58787 -14.9896,1.05552 -14.9896,5.05565 0,4.44969 7.6317,9.19401 12.1865,7.57594 1.8475,-0.65627 3.8337,-1.19324 4.4138,-1.19324 z m -31.7334,-17.38532 c 0,-6.18872 -5.875,-8.36823 -11.4899,-4.26249 -5.6048,4.09832 -2.6901,9.03698 5.3334,9.03698 4.3591,0 6.1565,-1.39393 6.1565,-4.77449 z m -22.6995,50.32236 c 0,-1.30532 1.135,-3.07478 2.5222,-3.93211 1.3872,-0.85734 2.5222,0.2106 2.5222,2.37331 0,2.16266 -1.135,3.93211 -2.5222,3.93211 -1.3872,0 -2.5222,-1.06799 -2.5222,-2.37331 z M 0,814.46381 l 0,-43.492 25.85222,25.96362 25.85221,25.96362 -18.2699,17.52838 C 19.10166,854.17859 13.53072,857.95582 7.58232,857.95582 l -7.58232,0 0,-43.49201 z m 46.64421,40.94414 c -1.97292,-3.19223 11.26284,-17.62947 16.1623,-17.62947 4.23422,0 19.86726,14.13975 17.71898,16.02643 -2.38534,2.09486 -32.69112,3.52874 -33.88128,1.60304 z m 505.484,-14.68419 c 1.36026,-2.54169 4.27092,-6.1132 6.4681,-7.9367 3.37852,-2.80392 4.94433,-2.4235 10.14862,2.46569 8.01961,7.53402 6.04236,10.09223 -7.80028,10.09223 -10.16353,0 -11.04295,-0.46095 -8.81644,-4.62122 z m 41.12551,-11.22165 c -7.23537,-7.32637 -13.15522,-14.25373 -13.15522,-15.3941 0,-3.12812 38.07484,-44.42806 40.95866,-44.42806 3.08958,0 39.7507,36.74627 39.7507,39.84301 0,1.22885 -7.2791,9.22402 -16.1758,17.76706 -14.77993,14.19241 -17.12703,15.53279 -27.19946,15.53279 -9.96473,0 -12.28737,-1.2796 -24.17888,-13.3207 z m 77.64281,8.3651 c 0,-3.37635 9.64953,-8.22434 12.66297,-6.36195 5.48677,3.39103 2.35522,8.79538 -5.09647,8.79538 -4.16158,0 -7.5665,-1.09505 -7.5665,-2.43343 z m 41.71846,-7.82985 c -19.24978,-17.74385 -19.26623,-17.3406 1.63805,-40.19354 10.1036,-11.04545 19.92527,-20.67937 21.8259,-21.40871 4.34628,-1.66783 38.22645,32.5945 38.22645,38.65762 0,2.40642 -6.1217,10.42096 -13.60379,17.81013 -11.42166,11.27976 -15.42459,13.64003 -24.95483,14.71422 -10.62145,1.1972 -12.10817,0.58149 -23.13178,-9.57972 z m 151.05797,-15.58893 c 2.3054,-17.52866 5.3815,-19.999 7.3172,-5.87635 1.813,13.22766 0.2045,19.11773 -5.2204,19.11773 -3.1701,0 -3.5352,-2.30534 -2.0968,-13.24138 z M 39.09483,782.29205 13.96905,757.07161 37.44579,733.49686 c 18.7817,-18.86011 24.63958,-23.35247 29.29127,-22.46325 3.19798,0.61132 6.60553,-0.16823 7.57232,-1.73268 1.14822,-1.85786 3.49422,-0.63667 6.76496,3.5214 2.75393,3.50107 4.3578,7.41625 3.56413,8.70044 -0.79368,1.28416 -0.40151,5.07427 0.87146,8.42245 1.64082,4.31571 1.18289,8.42414 -1.57331,14.11506 -3.41047,7.04184 -3.44729,9.18485 -0.29998,17.45411 2.80056,7.35822 4.94836,9.42665 9.78838,9.42665 4.8615,0 6.81676,-1.90643 9.05375,-8.82759 3.08077,-9.53185 9.11372,-11.81267 10.61572,-4.01342 0.65605,3.40659 -5.90414,11.33414 -22.43679,27.1133 -12.85014,12.26452 -24.05535,22.29914 -24.90048,22.29914 -0.84513,0 -12.84321,-11.3492 -26.66239,-25.22042 z m 499.5869,-7.3676 -19.86002,-19.97718 19.53996,-21.46519 c 10.74698,-11.80583 20.96885,-22.0135 22.71527,-22.68367 3.30038,-1.26648 41.72106,35.63997 41.72106,40.07677 0,2.49803 -40.54956,44.02645 -42.9887,44.02645 -0.69715,0 -10.20456,-8.98974 -21.12757,-19.97718 z m 124.64401,5.44548 c -6.24474,-6.57309 -14.56867,-15.51766 -18.49768,-19.87682 l -7.14364,-7.92574 19.31544,-21.70973 c 10.6235,-11.94034 20.67832,-21.70971 22.34406,-21.70971 3.70002,0 39.47379,35.63881 39.47379,39.32488 0,2.70351 -40.12484,43.93006 -42.70489,43.87742 -0.78817,-0.0151 -6.54237,-5.40723 -12.78708,-11.9803 z m 107.7593,-10.12274 c -9.32635,-9.39835 -16.95699,-18.26544 -16.95699,-19.70461 0,-4.86335 35.67314,-41.39465 40.42223,-41.39465 7.08028,0 12.53431,9.45382 10.76077,18.65224 -1.50157,7.78795 -1.48096,7.80505 3.7881,3.14486 5.20197,-4.60086 5.41439,-4.55995 11.73481,2.25992 7.29948,7.87625 8.00019,13.55155 2.88405,23.35887 -3.59586,6.89306 -29.62906,30.77131 -33.54836,30.77131 -1.17018,0 -9.75827,-7.68956 -19.08461,-17.08794 z M 0,703.10974 l 0,-44.40516 8.26017,0 c 6.91188,0 11.26269,3.02272 26.65483,18.51826 l 18.39464,18.51823 -6.47481,7.69491 c -3.56117,4.2322 -15.55584,15.88131 -26.65484,25.8869 L 0,747.51487 0,703.10974 z m 981.97016,32.35141 c -2.2873,-5.96074 3.0794,-10.20348 7.8737,-6.22458 2.1396,1.77568 3.8901,4.79202 3.8901,6.70294 0,4.79385 -9.895,4.39149 -11.7638,-0.47836 z m -66.4234,-1.09154 c 0,-1.38719 1.6355,-2.52217 3.6344,-2.52217 1.9989,0 4.3359,1.13498 5.1932,2.52217 0.8574,1.38719 -0.7781,2.52217 -3.6344,2.52217 -2.8562,0 -5.1932,-1.13498 -5.1932,-2.52217 z M 598.3033,714.21106 c -10.01265,-9.70001 -18.20296,-19.06355 -18.20069,-20.80788 0.002,-1.74433 6.61443,-9.69761 14.69374,-17.67397 14.27156,-14.08971 15.08143,-14.50246 28.45643,-14.50246 13.27599,0 14.23582,0.47493 26.92202,13.3207 7.23537,7.32637 13.15522,14.26944 13.15522,15.42906 0,3.51489 -39.78078,41.87093 -43.42625,41.87093 -1.86761,0 -11.58784,-7.93638 -21.60047,-17.63638 z m 117.4017,-0.64933 c -9.3842,-10.05715 -17.06231,-19.98818 -17.06246,-22.06897 -1.3e-4,-2.08079 6.02594,-10.30936 13.39124,-18.28571 14.23673,-15.41781 17.85218,-16.65423 34.87401,-11.92617 10.46559,2.90695 29.91977,22.35245 29.91977,29.9064 0,5.05525 -36.07933,40.66016 -41.20195,40.66016 -1.57214,0 -10.53641,-8.22857 -19.92061,-18.28571 z m 117.08583,0.53227 c -9.76009,-9.09289 -7.77297,-13.4465 16.24157,-35.58392 3.98389,-3.67248 9.60956,-9.82452 12.50146,-13.67118 5.6467,-7.51109 13.6582,-7.26737 13.6582,0.41548 0,5.2832 -14.7389,31.28272 -17.7339,31.28272 -1.2269,0 -5.22389,5.10739 -8.88217,11.34975 -3.65826,6.24236 -7.46451,11.34975 -8.45832,11.34975 -0.99381,0 -4.29089,-2.31416 -7.32684,-5.1426 z M 164.44532,703.59916 c -4.47339,-4.47339 -3.74257,-16.3363 1.12141,-18.20278 4.4634,-1.71278 13.50716,4.90216 13.50716,9.87963 0,2.82253 -7.82371,11.34976 -10.41337,11.34976 -0.65372,0 -2.55057,-1.36197 -4.2152,-3.02661 z m 648.16716,-13.96907 c 0.46443,-2.41165 2.72863,-4.74768 5.03154,-5.19118 3.12212,-0.60128 3.84182,0.51402 2.8296,4.38482 -1.65273,6.32002 -9.06949,7.08081 -7.86114,0.80636 z M 54.73847,671.83963 c -5.13669,-5.26046 -9.33946,-10.36785 -9.33946,-11.34976 0,-2.29812 38.95153,-2.34773 41.2467,-0.0525 2.05552,2.05549 -15.81084,20.96676 -19.80827,20.96676 -1.51774,0 -6.96227,-4.30401 -12.09897,-9.56447 z m 497.96578,-3.93534 -5.57404,-5.93327 13.33145,0.52171 c 16.77317,0.65639 16.21274,0.32975 10.80925,6.30052 -6.01476,6.64627 -11.74546,6.37188 -18.56666,-0.88896 z m 120.4646,1.18807 c -7.73208,-6.26837 -5.50521,-8.38303 7.78525,-7.3929 l 10.58258,0.78837 -6.15613,5.75688 c -6.13116,5.73351 -6.18072,5.73697 -12.2117,0.84765 z m 312.15791,0.54161 c -3.4719,-3.47192 -1.4978,-8.40722 3.3629,-8.40722 3.3629,0 5.0443,1.68145 5.0443,5.04434 0,4.86069 -4.9353,6.83482 -8.4072,3.36288 z m -67.2578,-4.83414 c 0,-4.45397 5.4296,-3.6783 6.9885,0.99835 0.5491,1.64728 -0.7987,2.99507 -2.9951,2.99507 -2.1964,0 -3.9934,-1.79704 -3.9934,-3.99342 z m -68.09854,-56.17989 c 0,-4.65539 12.96374,-69.96102 15.46684,-77.91536 1.4187,-4.50837 4.194,-8.19704 6.1672,-8.19704 5.1633,0 4.5469,12.52985 -1.4567,29.61105 -3.0841,8.77483 -5.0443,20.81752 -5.0443,30.98977 0,15.56178 -0.4894,16.99951 -7.5665,22.2319 -4.16162,3.07679 -7.56654,4.55264 -7.56654,3.27968 z m 67.25784,-9.60666 c -3.1976,-3.19758 -1.6619,-5.88505 3.3629,-5.88505 2.8024,0 5.0443,1.68145 5.0443,3.78325 0,3.83977 -5.3354,5.17362 -8.4072,2.1018 z m 66.4171,-1.68143 c 0,-4.74389 2.4271,-6.60394 6.552,-5.02108 5.3648,2.05867 4.2273,8.38396 -1.5077,8.38396 -2.7744,0 -5.0443,-1.5133 -5.0443,-3.36288 z m -65.156,-69.77998 c 1.2695,-3.80859 5.3254,-4.20109 6.5156,-0.63054 0.578,1.73399 -0.8407,3.15271 -3.1527,3.15271 -2.312,0 -3.8253,-1.13497 -3.3629,-2.52217 z m 67.6781,0 c 0,-1.38719 1.7025,-2.52216 3.7833,-2.52216 2.0808,0 3.7832,1.13497 3.7832,2.52216 0,1.3872 -1.7024,2.52217 -3.7832,2.52217 -2.0808,0 -3.7833,-1.13497 -3.7833,-2.52217 z m -65.5763,-69.3596 c 0,-2.08079 1.1349,-3.78325 2.5221,-3.78325 1.3872,0 2.5222,1.70246 2.5222,3.78325 0,2.08079 -1.135,3.78325 -2.5222,3.78325 -1.3872,0 -2.5221,-1.70246 -2.5221,-3.78325 z m 66.9451,1.43537 c -0.7981,-1.29135 -0.2976,-3.06081 1.1123,-3.93211 3.0098,-1.86023 7.6076,0.50082 7.6076,3.90668 0,3.06898 -6.8266,3.08888 -8.7199,0.0255 z m 1.1534,-70.79497 c 0,-1.3872 1.068,-2.52217 2.3733,-2.52217 1.3053,0 3.0748,1.13497 3.9321,2.52217 0.8573,1.38719 -0.2106,2.52216 -2.3733,2.52216 -2.1627,0 -3.9321,-1.13497 -3.9321,-2.52216 z m -66.3485,-67.18924 c -2.0151,-2.01503 0.2628,-5.95362 3.4432,-5.95362 1.3053,0 2.3733,1.70246 2.3733,3.78325 0,3.9003 -2.9761,5.01079 -5.8165,2.17037 z m 68.8707,-2.0912 c 0,-2.25633 1.4787,-3.13667 3.7832,-2.25235 2.0808,0.7985 3.7833,2.46532 3.7833,3.70411 0,1.23876 -1.7025,2.25232 -3.7833,2.25232 -2.0808,0 -3.7832,-1.66685 -3.7832,-3.70408 z m 2.5221,-137.5373 c 0,-1.38719 1.135,-2.52217 2.5222,-2.52217 1.3872,0 2.5222,1.13498 2.5222,2.52217 0,1.38719 -1.135,2.52217 -2.5222,2.52217 -1.3872,0 -2.5222,-1.13498 -2.5222,-2.52217 z"
       id="path3021"
       inkscape:connector-curvature="0" />
  </g>
</svg>
